<?xml version="1.0" encoding="utf-8"?>
<!-- Generator: Adobe Illustrator 24.3.0, SVG Export Plug-In . SVG Version: 6.00 Build 0)  -->
<svg version="1.1" height="21px" id="Capa_1" xmlns="http://www.w3.org/2000/svg" xmlns:xlink="http://www.w3.org/1999/xlink" x="0px" y="0px"
	 viewBox="0 0 21.1 19.6" style="enable-background:new 0 0 21.1 19.6;" xml:space="preserve">
<style type="text/css">
	.st0{fill:#DDDDDD;}
</style>
<g>
	<path class="st0" d="M20.7,5.3l-4.9-4.9C15.6,0.2,15.3,0,14.9,0c-0.3,0-0.5,0.1-0.7,0.2L14,0.4L7.7,1.3c-0.1,0-0.3,0-0.4,0.1L7,1.1
		l0,0C6.8,0.9,6.5,0.8,6.2,0.8S5.6,0.9,5.3,1.2L0.4,6.1C0,6.5-0.1,7.2,0.3,7.7l0,0l2.1,2.4c0.1,0.3,0.2,0.6,0.3,0.9
		c-0.5,0.6-0.5,1.5,0.1,2.1l0,0l0,0c0.3,0.3,0.7,0.4,1.1,0.5c0,0.1,0,0.1,0,0.2c0,0.4,0.2,0.8,0.5,1.1l0,0l0,0
		c0.3,0.3,0.7,0.5,1.1,0.5h0.1l0,0c0,0,0,0,0,0.1c0,0.4,0.2,0.8,0.5,1.1l0,0l0,0c0.3,0.3,0.7,0.5,1.1,0.5l0,0l0.1,0.1
		c0,0.4,0.2,0.8,0.5,1l0,0l0,0c0.3,0.3,0.6,0.4,1,0.5l0.4,0.4c0.3,0.3,0.8,0.5,1.3,0.5c0.6,0,1.1-0.2,1.4-0.7
		c0.2-0.2,0.3-0.5,0.4-0.8l0.3,0.3c0.3,0.3,0.8,0.5,1.3,0.5c0.4,0,0.8-0.1,1.1-0.4s0.6-0.7,0.7-1.1c0.3,0.3,0.8,0.4,1.2,0.4
		s0.8-0.1,1.1-0.4c0.4-0.3,0.6-0.8,0.7-1.3c0-0.5-0.1-0.9-0.4-1.3c0.3-0.1,0.6-0.2,0.8-0.4c0.4-0.3,0.6-0.8,0.7-1.3
		c0-0.5-0.2-1-0.5-1.4L18.6,11c0,0,0,0,0.1-0.1c1.2-1.6,1.9-2.8,2.2-3.8c0,0,0-0.1,0.1-0.1l0.1-0.3C21.1,6.4,21.1,5.7,20.7,5.3z
		 M3.9,12.7c-0.2,0-0.4-0.1-0.5-0.2l0,0c-0.3-0.3-0.3-0.7,0-1L4,10.9c0.1-0.1,0.3-0.2,0.5-0.2s0.4,0.1,0.5,0.2l0,0
		c0.3,0.3,0.3,0.7,0,1l-0.6,0.6C4.3,12.6,4.1,12.7,3.9,12.7z M6,14.3c-0.1,0.1-0.3,0.2-0.5,0.2S5.1,14.4,5,14.3l0,0
		c-0.3-0.3-0.3-0.7,0-1L6.3,12c0.1-0.1,0.3-0.2,0.5-0.2s0.4,0.1,0.5,0.2l0,0c0.3,0.3,0.3,0.7,0,1L6,14.3z M7.7,15.9
		c-0.1,0.1-0.3,0.2-0.5,0.2S6.8,16,6.7,15.9l0,0c-0.3-0.3-0.3-0.7,0-1L7.6,14c0.1-0.1,0.3-0.2,0.5-0.2s0.4,0.1,0.5,0.2l0,0
		c0.3,0.3,0.3,0.7,0,1L7.7,15.9z M8.9,17.8c-0.2,0-0.4-0.1-0.5-0.2l0,0c-0.3-0.3-0.3-0.7,0-1l0.4-0.4C8.9,16.1,9.1,16,9.3,16
		s0.4,0.1,0.5,0.2l0,0c0.3,0.3,0.3,0.7,0,1l-0.4,0.4C9.3,17.7,9.1,17.8,8.9,17.8z M11.3,18.4c-0.2,0.2-0.5,0.4-0.7,0.4
		s-0.5-0.1-0.7-0.3l-0.1-0.1c0.1-0.1,0.2-0.1,0.2-0.2l0.4-0.4c0.3-0.3,0.4-0.6,0.5-1l0.3,0.3C11.5,17.4,11.6,18,11.3,18.4z
		 M18.5,12.5c0.4,0.4,0.4,1.1-0.1,1.4c-0.2,0.1-0.4,0.2-0.6,0.2c-0.3,0-0.5-0.1-0.7-0.3l-3.4-3.4c-0.1-0.1-0.2-0.1-0.3-0.1
		s-0.2,0-0.3,0.1l0,0c-0.2,0.2-0.2,0.5,0,0.7l4.4,4.4c0.4,0.4,0.4,1.1-0.1,1.4c-0.2,0.1-0.4,0.2-0.6,0.2c-0.3,0-0.5-0.1-0.7-0.3
		l-4.4-4.4c-0.1-0.1-0.2-0.1-0.3-0.1s-0.2,0-0.3,0.1c-0.2,0.2-0.2,0.5,0,0.6l3.5,3.5c0.4,0.4,0.4,1.1-0.1,1.4
		c-0.2,0.1-0.4,0.2-0.6,0.2c-0.3,0-0.5-0.1-0.7-0.3l-3.6-3.6c-0.1-0.3-0.2-0.5-0.4-0.8l0,0C9,13.2,8.6,13,8.3,13
		c0.1-0.2,0.1-0.4,0.1-0.6c0-0.4-0.2-0.8-0.5-1.1l0,0l0,0c-0.3-0.3-0.7-0.5-1.1-0.5c-0.3,0-0.5,0.1-0.8,0.2
		c-0.1-0.3-0.2-0.5-0.4-0.7l0,0l0,0C5.3,10,4.9,9.8,4.5,9.8c-0.4,0-0.8,0.2-1.1,0.5l0,0C3.3,10.1,3.3,10,3.3,9.8
		c0-0.1,0-0.1-0.1-0.2L1,7.2C0.9,7,0.9,6.8,1,6.7l4.9-4.9C6,1.7,6.1,1.7,6.2,1.7s0.2,0,0.3,0.1l0,0C6.2,2.1,6,2.6,6,3.1
		c0,1,0.8,1.8,1.8,1.8h3.1L18.5,12.5z M20.1,6.5l-0.2,0.4c0,0-0.1,0.1-0.1,0.2c-0.2,1.1-1.1,2.4-2,3.6c-1.2-1.2-6.6-6.6-6.6-6.6H7.7
		c-0.5,0-0.9-0.4-0.9-0.9s0.4-0.9,0.9-0.9l6.5-0.9l0,0l0.3-0.2c0.1-0.1,0.2-0.1,0.3-0.1s0.2,0,0.3,0.1L20,6.1
		C20.2,6.1,20.2,6.3,20.1,6.5z"/>
</g>
</svg>
