<?xml version="1.0" encoding="utf-8"?>
<!-- Generator: Adobe Illustrator 24.3.0, SVG Export Plug-In . SVG Version: 6.00 Build 0)  -->
<svg height="20px" version="1.1" id="Capa_1" xmlns="http://www.w3.org/2000/svg" xmlns:xlink="http://www.w3.org/1999/xlink" x="0px" y="0px"
	 viewBox="0 0 20.5 17.6" style="enable-background:new 0 0 20.5 17.6;" xml:space="preserve">
<style type="text/css">
	.st0{fill:#DDDDDD;stroke:#DDDDDD;stroke-width:0.4271;stroke-miterlimit:1.4035;}
</style>
<g>
	<path class="st0" d="M19.6,1.1c-0.4-0.2-0.8-0.1-1,0.2l-4,3.7V1.9c0-1-0.8-1.7-1.7-1.7h-11c-1,0-1.7,0.8-1.7,1.7v8.2
		c0,0.9,0.8,1.7,1.7,1.7h5.2l-2.4,5.1c-0.1,0.2,0,0.4,0.2,0.5H5c0.1,0,0.3-0.1,0.3-0.2l2.3-4.9l2.3,4.9c0.1,0.1,0.2,0.2,0.3,0.2h0.1
		c0.2-0.1,0.3-0.3,0.2-0.5l-2.3-5.1h4.6c1,0,1.8-0.8,1.8-1.8V7.2l4,3.8c0.2,0.2,0.4,0.3,0.7,0.3c0.1,0,0.2,0,0.4-0.1
		c0.4-0.1,0.6-0.5,0.6-0.9V2C20.2,1.6,20,1.3,19.6,1.1z M13.9,10c0,0.6-0.5,1.1-1.1,1.1H7.7l0,0l0,0l0,0H2c-0.5,0-1-0.4-1-1V1.9
		c0-0.6,0.5-1,1-1h10.9c0.6,0,1,0.5,1,1C13.9,1.9,13.9,10,13.9,10z M19.5,10.3c0,0.2-0.1,0.2-0.2,0.2c0,0-0.2,0.1-0.3-0.1l-4.3-4.1
		c-0.1-0.1-0.1-0.1-0.1-0.2s0-0.1,0.1-0.2l4.4-4.1h0.1h0.1c0,0,0.2,0.1,0.2,0.2V10.3z"/>
</g>
</svg>
