<?xml version="1.0" encoding="utf-8"?>
<!-- Generator: Adobe Illustrator 24.3.0, SVG Export Plug-In . SVG Version: 6.00 Build 0)  -->
<svg version="1.1" id="Layer_1" xmlns="http://www.w3.org/2000/svg" xmlns:xlink="http://www.w3.org/1999/xlink" x="0px" y="0px"
	 viewBox="0 0 16.9 15.8" style="enable-background:new 0 0 16.9 15.8;" height="17px" xml:space="preserve">
<style type="text/css">
	.st0{fill:#DDDDDD;}
</style>
<g>
	<g>
		<path class="st0" d="M7,12.8c-0.8,0-1.5,0.7-1.5,1.5s0.7,1.5,1.5,1.5s1.5-0.7,1.5-1.5C8.5,13.4,7.9,12.8,7,12.8z M7,14.9
			c-0.4,0-0.7-0.3-0.7-0.7s0.3-0.7,0.7-0.7s0.7,0.3,0.7,0.7S7.4,14.9,7,14.9z"/>
	</g>
</g>
<g>
	<g>
		<path class="st0" d="M12.3,12.8c-0.8,0-1.5,0.7-1.5,1.5s0.7,1.5,1.5,1.5s1.5-0.7,1.5-1.5C13.8,13.4,13.1,12.8,12.3,12.8z
			 M12.3,14.9c-0.4,0-0.7-0.3-0.7-0.7s0.3-0.7,0.7-0.7c0.4,0,0.7,0.3,0.7,0.7C12.9,14.6,12.6,14.9,12.3,14.9z"/>
	</g>
</g>
<g>
	<g>
		<path class="st0" d="M12.6,4.9h-6c-0.2,0-0.4,0.2-0.4,0.4c0,0.2,0.2,0.4,0.4,0.4h6c0.2,0,0.4-0.2,0.4-0.4
			C13.1,5.1,12.9,4.9,12.6,4.9z"/>
	</g>
</g>
<g>
	<g>
		<path class="st0" d="M12.3,7.1H7c-0.2,0-0.4,0.2-0.4,0.4S6.8,7.9,7,7.9h5.3c0.2,0,0.4-0.2,0.4-0.4C12.7,7.3,12.5,7.1,12.3,7.1z"/>
	</g>
</g>
<g>
	<g>
		<path class="st0" d="M16.7,3c-0.2-0.2-0.4-0.3-0.6-0.3h-13L2.8,1.4C2.7,1.1,2.6,0.9,2.3,0.8L0.5,0C0.3-0.1,0,0,0,0.2
			c-0.1,0.2,0,0.5,0.2,0.5L2,1.5l2,9.8C4.1,11.7,4.4,12,4.8,12h10c0.2,0,0.4-0.2,0.4-0.4s-0.2-0.4-0.4-0.4h-10L4.6,10h10.3
			c0.4,0,0.7-0.3,0.8-0.7l1.2-5.7C16.9,3.5,16.9,3.2,16.7,3z M14.9,9.2H4.4L3.2,3.5H16L14.9,9.2z"/>
	</g>
</g>
</svg>
