<?xml version="1.0" encoding="utf-8"?>
<!-- Generator: Adobe Illustrator 24.3.0, SVG Export Plug-In . SVG Version: 6.00 Build 0)  -->
<svg height="20" version="1.1" id="Ebene_1" xmlns="http://www.w3.org/2000/svg" xmlns:xlink="http://www.w3.org/1999/xlink" x="0px" y="0px"
	 viewBox="0 0 14 20" style="enable-background:new 0 0 14 20;" xml:space="preserve">
<style type="text/css">
	.st0{fill:none;stroke:#DDDDDD;stroke-linecap:round;}
</style>
<g>
	<g>
		<path class="st0" d="M0.5,13C0.4,10.4,1,7.9,2.2,6.3c0.1,0.5,0.3,0.9,0.5,1.2c0.4,0.6,0.9,1,1.5,1.3l0.9,0.5l-0.2-1
			c-0.1-0.8,0-1.9,0.6-3.2l0,0c0.8-1.8,2.4-2.9,3.8-3.7c0.7-0.3,1.3-0.6,1.8-0.7c0,0.3-0.1,0.7-0.2,1.2c-0.2,1.2-0.4,2.8,0.1,4.2
			l0,0l0,0C11.2,7,11.7,8,12,8.7c0.2,0.4,0.4,0.7,0.5,0.9c0.1,0.1,0.1,0.2,0.2,0.3V10l0,0c0.5,0.9,0.7,1.9,0.7,3
			c0,3.6-2.8,6.5-6.4,6.5C3.6,19.5,0.7,16.6,0.5,13L0.5,13z"/>
	</g>
</g>
</svg>
