<?xml version="1.0" encoding="utf-8"?>
<!-- Generator: Adobe Illustrator 24.3.0, SVG Export Plug-In . SVG Version: 6.00 Build 0)  -->
<svg width="21px" version="1.1" id="Ebene_1" xmlns="http://www.w3.org/2000/svg" xmlns:xlink="http://www.w3.org/1999/xlink" x="0px" y="0px"
	 viewBox="0 0 19.1 15.9" style="enable-background:new 0 0 19.1 15.9;" xml:space="preserve">
<style type="text/css">
	.st0{fill:#DDDDDD;}
</style>
<path class="st0" d="M2.9,0.1c-0.1,0-0.1,0-0.2,0.1L1.6,1L0.5,0.2c-0.1-0.1-0.2-0.1-0.3,0S0,0.4,0,0.5v14.4c0,0.5,0.4,1,1,1h13.6
	c0.4,0,0.8-0.2,1.2-0.5l2.8-2.8c0.3-0.3,0.5-0.7,0.5-1.2v-11c0-0.1-0.1-0.2-0.2-0.3c-0.1-0.1-0.2,0-0.3,0l-1.1,0.8l-1.1-0.8
	C16.3,0,16.1,0,16,0.1l-1.1,0.8l-1.3-0.8c-0.1-0.1-0.3-0.1-0.4,0l-1.1,0.8L11,0.1c-0.1-0.1-0.3-0.1-0.4,0L9.5,0.9L8.4,0.1
	C8.3,0,8.1,0,8,0.1L6.9,0.9L5.8,0.1C5.7,0,5.5,0,5.4,0.1L4.3,0.9L3.2,0.1C3,0.1,2.9,0.1,2.9,0.1z M2.9,0.8L4,1.6
	c0.1,0.1,0.3,0.1,0.4,0l1.1-0.8l1.1,0.8c0.1,0.1,0.3,0.1,0.4,0l1.1-0.8l1.1,0.8c0.1,0.1,0.3,0.1,0.4,0l1.1-0.8l1.1,0.8
	c0.1,0.1,0.3,0.1,0.4,0l1.1-0.8l1.1,0.8c0.1,0.1,0.3,0.1,0.4,0l1.1-0.8L17,1.6c0.1,0.1,0.3,0.1,0.4,0L18.2,1v10.2h-3
	c-0.5,0-1,0.4-1,1v3H0.9c-0.2,0-0.3-0.1-0.3-0.3V1.1l0.8,0.5c0.1,0.1,0.3,0.1,0.4,0L2.9,0.8z M2.2,2.7C2,2.7,1.9,2.8,1.9,3v1.3
	c0,0.2,0.1,0.3,0.3,0.3h14.4c0.2,0,0.3-0.1,0.3-0.3V3c0-0.2-0.1-0.3-0.3-0.3H2.2z M2.5,3.3h13.8V4H2.5V3.3z M2.2,6
	C2,6,1.9,6.1,1.9,6.3v5.3c0,0.2,0.1,0.3,0.3,0.3h6.6c0.2,0,0.3-0.1,0.3-0.3V6.3C9.1,6.1,9,6,8.8,6C8.8,6,2.2,6,2.2,6z M10.7,6
	c-0.2,0-0.3,0.1-0.3,0.3s0.2,0.3,0.3,0.3h4.6c0.2,0,0.3-0.1,0.3-0.3S15.5,6,15.3,6C15.3,6,10.7,6,10.7,6z M2.5,6.6h5.9v4.6H2.5V6.6z
	 M5.5,7.3C4.6,7.3,3.9,8,3.9,8.9s0.7,1.7,1.6,1.7c0.9,0,1.6-0.7,1.6-1.6c0-0.2-0.1-0.3-0.3-0.3h-1C5.6,8.7,5.5,8.8,5.5,9
	s0.1,0.3,0.3,0.3h0.6C6.3,9.7,5.9,10,5.5,10c-0.5,0-1-0.4-1-1s0.4-1,1-1C5.7,8,5.8,8,6,8.1c0.2,0.1,0.4,0,0.4-0.1
	c0.1-0.2,0-0.4-0.1-0.4C6,7.4,5.8,7.3,5.5,7.3z M10.7,7.3c-0.2,0-0.3,0.1-0.3,0.3s0.1,0.3,0.3,0.3h5.9c0.2,0,0.3-0.1,0.3-0.3
	s-0.1-0.3-0.3-0.3H10.7z M10.7,8.6c-0.2,0-0.3,0.1-0.3,0.3s0.1,0.3,0.3,0.3H14c0.2,0,0.3-0.1,0.3-0.3S14.2,8.6,14,8.6H10.7z
	 M15.3,8.6c-0.2,0-0.3,0.1-0.3,0.3s0.1,0.3,0.3,0.3H16c0.2,0,0.3-0.1,0.3-0.3S16.2,8.6,16,8.6H15.3z M10.7,9.9
	c-0.2,0-0.3,0.1-0.3,0.3s0.2,0.4,0.3,0.4h5.9c0.2,0,0.3-0.1,0.3-0.3S16.8,10,16.6,10h-5.9V9.9z M10.7,11.2c-0.2,0-0.3,0.1-0.3,0.3
	s0.1,0.3,0.3,0.3h2.6c0.2,0,0.3-0.1,0.3-0.3s-0.1-0.3-0.3-0.3H10.7z M15.3,11.9h2.8c0,0.1-0.1,0.1-0.1,0.2l-2.8,2.8
	c0,0-0.1,0.1-0.2,0.1v-2.8C15,12,15.2,11.9,15.3,11.9z M2.2,12.5c-0.2,0-0.3,0.1-0.3,0.3v0.7c0,0.2,0.1,0.3,0.3,0.3s0.3-0.1,0.3-0.3
	v-0.7C2.5,12.7,2.4,12.5,2.2,12.5z M3.9,12.5c-0.2,0-0.3,0.1-0.3,0.3v0.7c0,0.2,0.1,0.3,0.3,0.3c0.2,0,0.3-0.1,0.3-0.3v-0.7
	C4.2,12.7,4,12.5,3.9,12.5z M5.5,12.5c-0.2,0-0.3,0.1-0.3,0.3v0.7c0,0.2,0.1,0.3,0.3,0.3c0.2,0,0.3-0.1,0.3-0.3v-0.7
	C5.8,12.7,5.7,12.5,5.5,12.5z M7.1,12.5c-0.2,0-0.3,0.1-0.3,0.3v0.7c0,0.2,0.1,0.3,0.3,0.3s0.3-0.1,0.3-0.3v-0.7
	C7.5,12.7,7.3,12.5,7.1,12.5z M8.8,12.5c-0.2,0-0.3,0.1-0.3,0.3v0.7c0,0.2,0.1,0.3,0.3,0.3s0.3-0.1,0.3-0.3v-0.7
	C9.1,12.7,9,12.5,8.8,12.5z"/>
</svg>
